<?xml version="1.0" encoding="UTF-8"?>
<svg xmlns="http://www.w3.org/2000/svg" xmlns:xlink="http://www.w3.org/1999/xlink" width="50px" height="50px" viewBox="0 0 50 50" version="1.1">
<g id="surface1">
<path style=" stroke:none;fill-rule:nonzero;fill:rgb(8.235294%,39.607844%,75.294119%);fill-opacity:1;" d="M 10.417969 12.5 L 13.542969 38.542969 L 5.1875 30.1875 C 3.949219 28.949219 3.617188 27.066406 4.359375 25.480469 Z M 10.417969 12.5 "/>
<path style=" stroke:none;fill-rule:nonzero;fill:rgb(25.882354%,64.705884%,96.078432%);fill-opacity:1;" d="M 28.457031 6.582031 C 27.578125 5.703125 26.382812 5.207031 25.140625 5.207031 C 24.363281 5.207031 23.601562 5.402344 22.917969 5.769531 L 10.417969 12.5 L 10.417969 33.691406 C 10.417969 34.796875 10.855469 35.855469 11.636719 36.636719 L 13.542969 38.542969 L 36.457031 38.542969 L 36.457031 33.332031 L 43.75 21.875 Z M 28.457031 6.582031 "/>
<path style=" stroke:none;fill-rule:nonzero;fill:rgb(8.235294%,39.607844%,75.294119%);fill-opacity:1;" d="M 10.417969 12.5 L 32.648438 12.5 C 33.753906 12.5 34.8125 12.9375 35.59375 13.722656 L 43.75 21.875 L 43.75 38.542969 L 36.457031 38.542969 Z M 10.417969 12.5 "/>
<path style=" stroke:none;fill-rule:nonzero;fill:rgb(52.156866%,79.607844%,97.254902%);fill-opacity:1;" d="M 36.457031 38.542969 L 13.542969 38.542969 L 19.792969 44.792969 L 36.457031 44.792969 Z M 36.457031 38.542969 "/>
</g>
</svg>
