<?xml version="1.0" encoding="UTF-8"?>
<svg xmlns="http://www.w3.org/2000/svg" xmlns:xlink="http://www.w3.org/1999/xlink" width="50px" height="50px" viewBox="0 0 50 50" version="1.1">
<defs>
<radialGradient id="radial0" gradientUnits="userSpaceOnUse" cx="24" cy="10.009" fx="24" fy="10.009" r="32.251999" gradientTransform="matrix(1.041667,0,0,1.041667,0,0)">
<stop offset="0" style="stop-color:rgb(54.901961%,61.960784%,100%);stop-opacity:1;"/>
<stop offset="0.368" style="stop-color:rgb(53.333333%,60.392157%,97.254902%);stop-opacity:1;"/>
<stop offset="0.889" style="stop-color:rgb(49.411765%,56.078431%,90.196078%);stop-opacity:1;"/>
<stop offset="1" style="stop-color:rgb(48.235294%,54.901961%,88.235294%);stop-opacity:1;"/>
</radialGradient>
<filter id="alpha" filterUnits="objectBoundingBox" x="0%" y="0%" width="100%" height="100%">
  <feColorMatrix type="matrix" in="SourceGraphic" values="0 0 0 0 1 0 0 0 0 1 0 0 0 0 1 0 0 0 1 0"/>
</filter>
<mask id="mask0">
  <g filter="url(#alpha)">
<rect x="0" y="0" width="50" height="50" style="fill:rgb(0%,0%,0%);fill-opacity:0.0509804;stroke:none;"/>
  </g>
</mask>
<clipPath id="clip1">
  <rect x="0" y="0" width="50" height="50"/>
</clipPath>
<g id="surface5" clip-path="url(#clip1)">
<path style=" stroke:none;fill-rule:nonzero;fill:rgb(0%,0%,0%);fill-opacity:1;" d="M 36.457031 27.082031 C 36.457031 24.207031 34.359375 21.875 31.769531 21.875 C 29.183594 21.875 27.082031 24.207031 27.082031 27.082031 C 27.082031 29.960938 29.183594 32.292969 31.769531 32.292969 C 34.359375 32.292969 36.457031 29.960938 36.457031 27.082031 Z M 36.457031 27.082031 "/>
</g>
<mask id="mask1">
  <g filter="url(#alpha)">
<rect x="0" y="0" width="50" height="50" style="fill:rgb(0%,0%,0%);fill-opacity:0.0509804;stroke:none;"/>
  </g>
</mask>
<clipPath id="clip2">
  <rect x="0" y="0" width="50" height="50"/>
</clipPath>
<g id="surface8" clip-path="url(#clip2)">
<path style=" stroke:none;fill-rule:nonzero;fill:rgb(0%,0%,0%);fill-opacity:1;" d="M 35.9375 27.082031 C 35.9375 24.496094 34.070312 22.394531 31.769531 22.394531 C 29.46875 22.394531 27.605469 24.496094 27.605469 27.082031 C 27.605469 29.671875 29.46875 31.769531 31.769531 31.769531 C 34.070312 31.769531 35.9375 29.671875 35.9375 27.082031 Z M 35.9375 27.082031 "/>
</g>
<mask id="mask2">
  <g filter="url(#alpha)">
<rect x="0" y="0" width="50" height="50" style="fill:rgb(0%,0%,0%);fill-opacity:0.0509804;stroke:none;"/>
  </g>
</mask>
<clipPath id="clip3">
  <rect x="0" y="0" width="50" height="50"/>
</clipPath>
<g id="surface11" clip-path="url(#clip3)">
<path style=" stroke:none;fill-rule:nonzero;fill:rgb(0%,0%,0%);fill-opacity:1;" d="M 22.917969 27.082031 C 22.917969 24.207031 20.816406 21.875 18.230469 21.875 C 15.640625 21.875 13.542969 24.207031 13.542969 27.082031 C 13.542969 29.960938 15.640625 32.292969 18.230469 32.292969 C 20.816406 32.292969 22.917969 29.960938 22.917969 27.082031 Z M 22.917969 27.082031 "/>
</g>
<mask id="mask3">
  <g filter="url(#alpha)">
<rect x="0" y="0" width="50" height="50" style="fill:rgb(0%,0%,0%);fill-opacity:0.0509804;stroke:none;"/>
  </g>
</mask>
<clipPath id="clip4">
  <rect x="0" y="0" width="50" height="50"/>
</clipPath>
<g id="surface14" clip-path="url(#clip4)">
<path style=" stroke:none;fill-rule:nonzero;fill:rgb(0%,0%,0%);fill-opacity:1;" d="M 22.394531 27.082031 C 22.394531 24.496094 20.53125 22.394531 18.230469 22.394531 C 15.929688 22.394531 14.0625 24.496094 14.0625 27.082031 C 14.0625 29.671875 15.929688 31.769531 18.230469 31.769531 C 20.53125 31.769531 22.394531 29.671875 22.394531 27.082031 Z M 22.394531 27.082031 "/>
</g>
</defs>
<g id="surface1">
<path style=" stroke:none;fill-rule:nonzero;fill:url(#radial0);" d="M 41.777344 12.65625 C 41.710938 12.550781 41.632812 12.464844 41.53125 12.390625 C 40.730469 11.789062 36.667969 8.914062 31.464844 8.355469 C 31.453125 8.351562 31.414062 8.351562 31.40625 8.351562 C 31.304688 8.351562 31.214844 8.410156 31.171875 8.496094 L 30.890625 9.058594 C 30.871094 9.089844 30.863281 9.132812 30.863281 9.171875 C 30.863281 9.285156 30.9375 9.382812 31.039062 9.417969 C 31.042969 9.421875 31.089844 9.429688 31.105469 9.433594 C 35.550781 10.503906 38.253906 12.445312 40.632812 14.585938 C 36.417969 12.433594 32.253906 10.417969 25 10.417969 C 17.746094 10.417969 13.582031 12.433594 9.367188 14.585938 C 11.746094 12.445312 14.449219 10.503906 18.894531 9.433594 C 18.910156 9.429688 18.957031 9.421875 18.960938 9.417969 C 19.0625 9.382812 19.136719 9.285156 19.136719 9.171875 C 19.136719 9.132812 19.128906 9.089844 19.109375 9.058594 L 18.828125 8.496094 C 18.785156 8.410156 18.699219 8.351562 18.59375 8.351562 C 18.585938 8.351562 18.542969 8.351562 18.535156 8.355469 C 13.332031 8.914062 9.269531 11.789062 8.46875 12.390625 C 8.367188 12.464844 8.289062 12.550781 8.222656 12.65625 C 7.484375 13.808594 2.960938 21.394531 2.085938 35.191406 C 2.074219 35.335938 2.125 35.492188 2.226562 35.601562 C 7.007812 40.960938 13.871094 41.59375 15.335938 41.667969 C 15.511719 41.675781 15.679688 41.597656 15.78125 41.460938 L 17.117188 39.679688 C 17.222656 39.539062 17.164062 39.34375 17.003906 39.285156 C 14.183594 38.257812 11.046875 36.472656 8.324219 33.339844 C 11.699219 35.894531 16.792969 38.542969 25 38.542969 C 33.207031 38.542969 38.300781 35.894531 41.675781 33.339844 C 38.949219 36.472656 35.816406 38.257812 32.996094 39.285156 C 32.832031 39.34375 32.777344 39.539062 32.882812 39.679688 L 34.214844 41.460938 C 34.320312 41.597656 34.488281 41.675781 34.660156 41.667969 C 36.128906 41.589844 42.992188 40.960938 47.773438 35.601562 C 47.871094 35.492188 47.925781 35.335938 47.914062 35.191406 C 47.039062 21.394531 42.515625 13.808594 41.777344 12.65625 Z M 41.777344 12.65625 "/>
<use xlink:href="#surface5" mask="url(#mask0)"/>
<use xlink:href="#surface8" mask="url(#mask1)"/>
<path style=" stroke:none;fill-rule:nonzero;fill:rgb(100%,100%,100%);fill-opacity:1;" d="M 35.417969 27.082031 C 35.417969 24.78125 33.785156 22.917969 31.769531 22.917969 C 29.757812 22.917969 28.125 24.78125 28.125 27.082031 C 28.125 29.382812 29.757812 31.25 31.769531 31.25 C 33.785156 31.25 35.417969 29.382812 35.417969 27.082031 Z M 35.417969 27.082031 "/>
<use xlink:href="#surface11" mask="url(#mask2)"/>
<use xlink:href="#surface14" mask="url(#mask3)"/>
<path style=" stroke:none;fill-rule:nonzero;fill:rgb(100%,100%,100%);fill-opacity:1;" d="M 21.875 27.082031 C 21.875 24.78125 20.242188 22.917969 18.230469 22.917969 C 16.214844 22.917969 14.582031 24.78125 14.582031 27.082031 C 14.582031 29.382812 16.214844 31.25 18.230469 31.25 C 20.242188 31.25 21.875 29.382812 21.875 27.082031 Z M 21.875 27.082031 "/>
</g>
</svg>
