<?xml version="1.0" encoding="UTF-8"?>
<svg xmlns="http://www.w3.org/2000/svg" xmlns:xlink="http://www.w3.org/1999/xlink" width="50px" height="50px" viewBox="0 0 50 50" version="1.1">
<defs>
<radialGradient id="radial0" gradientUnits="userSpaceOnUse" cx="19.379999" cy="42.035" fx="19.379999" fy="42.035" r="44.898998" gradientTransform="matrix(1.041667,0,0,1.041667,0,0)">
<stop offset="0" style="stop-color:rgb(100%,86.666667%,33.333333%);stop-opacity:1;"/>
<stop offset="0.328" style="stop-color:rgb(100%,32.941176%,24.705882%);stop-opacity:1;"/>
<stop offset="0.348" style="stop-color:rgb(98.823529%,32.156863%,27.058824%);stop-opacity:1;"/>
<stop offset="0.504" style="stop-color:rgb(90.196078%,27.843137%,44.313725%);stop-opacity:1;"/>
<stop offset="0.643" style="stop-color:rgb(83.529412%,24.313725%,56.862745%);stop-opacity:1;"/>
<stop offset="0.761" style="stop-color:rgb(80%,22.352941%,64.313725%);stop-opacity:1;"/>
<stop offset="0.841" style="stop-color:rgb(78.431373%,21.568627%,67.058824%);stop-opacity:1;"/>
</radialGradient>
<radialGradient id="radial1" gradientUnits="userSpaceOnUse" cx="11.786" cy="5.54" fx="11.786" fy="5.54" r="29.813" gradientTransform="matrix(1.041667,0,0,0.694062,0,1.926042)">
<stop offset="0" style="stop-color:rgb(25.490196%,40.784314%,78.823529%);stop-opacity:1;"/>
<stop offset="0.999" style="stop-color:rgb(25.490196%,40.784314%,78.823529%);stop-opacity:0;"/>
</radialGradient>
</defs>
<g id="surface1">
<path style=" stroke:none;fill-rule:nonzero;fill:url(#radial0);" d="M 35.433594 43.738281 L 14.601562 43.757812 C 10.019531 43.761719 6.265625 40.019531 6.257812 35.433594 L 6.238281 14.601562 C 6.234375 10.019531 9.980469 6.265625 14.566406 6.257812 L 35.398438 6.238281 C 39.980469 6.234375 43.734375 9.980469 43.738281 14.566406 L 43.757812 35.398438 C 43.765625 39.980469 40.019531 43.734375 35.433594 43.738281 Z M 35.433594 43.738281 "/>
<path style=" stroke:none;fill-rule:nonzero;fill:url(#radial1);" d="M 35.433594 43.738281 L 14.601562 43.757812 C 10.019531 43.761719 6.265625 40.019531 6.257812 35.433594 L 6.238281 14.601562 C 6.234375 10.019531 9.980469 6.265625 14.566406 6.257812 L 35.398438 6.238281 C 39.980469 6.234375 43.734375 9.980469 43.738281 14.566406 L 43.757812 35.398438 C 43.765625 39.980469 40.019531 43.734375 35.433594 43.738281 Z M 35.433594 43.738281 "/>
<path style=" stroke:none;fill-rule:nonzero;fill:rgb(100%,100%,100%);fill-opacity:1;" d="M 25 32.292969 C 20.980469 32.292969 17.707031 29.019531 17.707031 25 C 17.707031 20.980469 20.980469 17.707031 25 17.707031 C 29.019531 17.707031 32.292969 20.980469 32.292969 25 C 32.292969 29.019531 29.019531 32.292969 25 32.292969 Z M 25 19.792969 C 22.128906 19.792969 19.792969 22.128906 19.792969 25 C 19.792969 27.871094 22.128906 30.207031 25 30.207031 C 27.871094 30.207031 30.207031 27.871094 30.207031 25 C 30.207031 22.128906 27.871094 19.792969 25 19.792969 Z M 25 19.792969 "/>
<path style=" stroke:none;fill-rule:nonzero;fill:rgb(100%,100%,100%);fill-opacity:1;" d="M 34.375 17.1875 C 34.375 16.324219 33.675781 15.625 32.8125 15.625 C 31.949219 15.625 31.25 16.324219 31.25 17.1875 C 31.25 18.050781 31.949219 18.75 32.8125 18.75 C 33.675781 18.75 34.375 18.050781 34.375 17.1875 Z M 34.375 17.1875 "/>
<path style=" stroke:none;fill-rule:nonzero;fill:rgb(100%,100%,100%);fill-opacity:1;" d="M 31.25 38.542969 L 18.75 38.542969 C 14.730469 38.542969 11.457031 35.269531 11.457031 31.25 L 11.457031 18.75 C 11.457031 14.730469 14.730469 11.457031 18.75 11.457031 L 31.25 11.457031 C 35.269531 11.457031 38.542969 14.730469 38.542969 18.75 L 38.542969 31.25 C 38.542969 35.269531 35.269531 38.542969 31.25 38.542969 Z M 18.75 13.542969 C 15.878906 13.542969 13.542969 15.878906 13.542969 18.75 L 13.542969 31.25 C 13.542969 34.121094 15.878906 36.457031 18.75 36.457031 L 31.25 36.457031 C 34.121094 36.457031 36.457031 34.121094 36.457031 31.25 L 36.457031 18.75 C 36.457031 15.878906 34.121094 13.542969 31.25 13.542969 Z M 18.75 13.542969 "/>
</g>
</svg>
