<?xml version="1.0" encoding="UTF-8"?>
<svg xmlns="http://www.w3.org/2000/svg" xmlns:xlink="http://www.w3.org/1999/xlink" width="50px" height="50px" viewBox="0 0 50 50" version="1.1">
<defs>
<filter id="alpha" filterUnits="objectBoundingBox" x="0%" y="0%" width="100%" height="100%">
  <feColorMatrix type="matrix" in="SourceGraphic" values="0 0 0 0 1 0 0 0 0 1 0 0 0 0 1 0 0 0 1 0"/>
</filter>
<mask id="mask0">
  <g filter="url(#alpha)">
<rect x="0" y="0" width="50" height="50" style="fill:rgb(0%,0%,0%);fill-opacity:0.0509804;stroke:none;"/>
  </g>
</mask>
<clipPath id="clip1">
  <rect x="0" y="0" width="50" height="50"/>
</clipPath>
<g id="surface5" clip-path="url(#clip1)">
<path style=" stroke:none;fill-rule:nonzero;fill:rgb(0%,0%,0%);fill-opacity:1;" d="M 31.25 38.542969 L 31.25 28.023438 C 31.25 26.261719 30.398438 25.210938 28.964844 25.210938 C 28.117188 25.210938 27.492188 25.691406 27.113281 26.632812 C 27.097656 26.699219 27.070312 26.972656 27.082031 27.792969 L 27.082031 38.542969 L 19.792969 38.542969 L 19.792969 18.75 L 27.082031 18.75 L 27.082031 19.855469 C 28.148438 19.121094 29.453125 18.75 30.976562 18.75 C 35.714844 18.75 38.539062 21.972656 38.539062 27.367188 L 38.542969 38.542969 Z M 11.457031 38.542969 L 11.457031 18.75 L 15.058594 18.75 C 12.972656 18.75 11.457031 17.214844 11.457031 15.101562 C 11.457031 12.992188 12.996094 11.457031 15.117188 11.457031 C 17.214844 11.457031 18.707031 12.949219 18.75 15.082031 C 18.75 17.210938 17.210938 18.75 15.089844 18.75 L 18.75 18.75 L 18.75 38.542969 Z M 11.457031 38.542969 "/>
</g>
<mask id="mask1">
  <g filter="url(#alpha)">
<rect x="0" y="0" width="50" height="50" style="fill:rgb(0%,0%,0%);fill-opacity:0.0705882;stroke:none;"/>
  </g>
</mask>
<clipPath id="clip2">
  <rect x="0" y="0" width="50" height="50"/>
</clipPath>
<g id="surface8" clip-path="url(#clip2)">
<path style=" stroke:none;fill-rule:nonzero;fill:rgb(0%,0%,0%);fill-opacity:1;" d="M 31.769531 38.019531 L 31.769531 28.023438 C 31.769531 25.964844 30.695312 24.691406 28.964844 24.691406 C 27.617188 24.691406 26.949219 25.640625 26.628906 26.4375 C 26.542969 26.644531 26.554688 27.46875 26.558594 27.820312 L 26.5625 38.019531 L 20.3125 38.019531 L 20.3125 19.269531 L 26.5625 19.269531 L 26.5625 20.976562 C 27.390625 20.121094 28.722656 19.269531 30.976562 19.269531 C 35.386719 19.269531 38.019531 22.296875 38.019531 27.367188 L 38.019531 38.019531 Z M 11.980469 38.019531 L 11.980469 19.269531 L 18.230469 19.269531 L 18.230469 38.019531 Z M 15.058594 18.230469 C 13.273438 18.230469 11.980469 16.914062 11.980469 15.101562 C 11.980469 13.292969 13.300781 11.980469 15.117188 11.980469 C 16.914062 11.980469 18.191406 13.257812 18.230469 15.09375 C 18.230469 16.914062 16.910156 18.230469 15.089844 18.230469 Z M 15.058594 18.230469 "/>
</g>
</defs>
<g id="surface1">
<path style=" stroke:none;fill-rule:nonzero;fill:rgb(0%,47.058824%,83.137256%);fill-opacity:1;" d="M 43.75 38.542969 C 43.75 41.417969 41.417969 43.75 38.542969 43.75 L 11.457031 43.75 C 8.582031 43.75 6.25 41.417969 6.25 38.542969 L 6.25 11.457031 C 6.25 8.582031 8.582031 6.25 11.457031 6.25 L 38.542969 6.25 C 41.417969 6.25 43.75 8.582031 43.75 11.457031 Z M 43.75 38.542969 "/>
<use xlink:href="#surface5" mask="url(#mask0)"/>
<use xlink:href="#surface8" mask="url(#mask1)"/>
<path style=" stroke:none;fill-rule:nonzero;fill:rgb(100%,100%,100%);fill-opacity:1;" d="M 12.5 19.792969 L 17.707031 19.792969 L 17.707031 37.5 L 12.5 37.5 Z M 15.089844 17.707031 L 15.058594 17.707031 C 13.503906 17.707031 12.5 16.550781 12.5 15.101562 C 12.5 13.625 13.535156 12.5 15.117188 12.5 C 16.703125 12.5 17.679688 13.625 17.707031 15.101562 C 17.707031 16.550781 16.703125 17.707031 15.089844 17.707031 Z M 37.5 37.5 L 32.292969 37.5 L 32.292969 28.023438 C 32.292969 25.730469 31.015625 24.167969 28.964844 24.167969 C 27.402344 24.167969 26.558594 25.222656 26.148438 26.242188 C 25.996094 26.605469 26.042969 27.617188 26.042969 28.125 L 26.042969 37.5 L 20.832031 37.5 L 20.832031 19.792969 L 26.042969 19.792969 L 26.042969 22.515625 C 26.792969 21.355469 27.96875 19.792969 30.976562 19.792969 C 34.703125 19.792969 37.5 22.136719 37.5 27.367188 Z M 37.5 37.5 "/>
</g>
</svg>
