<?xml version="1.0" encoding="UTF-8"?>
<svg xmlns="http://www.w3.org/2000/svg" xmlns:xlink="http://www.w3.org/1999/xlink" width="50px" height="35px" viewBox="0 0 49 35" version="1.1">
<defs>
<linearGradient id="linear0" gradientUnits="userSpaceOnUse" x1="252.240005" y1="167.699997" x2="950.820007" y2="571.030029" gradientTransform="matrix(0.0478516,0,0,0.0486111,0,0)">
<stop offset="0" style="stop-color:rgb(0%,33.333333%,100%);stop-opacity:1;"/>
<stop offset="1" style="stop-color:rgb(0%,83.529412%,100%);stop-opacity:1;"/>
</linearGradient>
<linearGradient id="linear1" gradientUnits="userSpaceOnUse" x1="771.76001" y1="552.299988" x2="73.18" y2="148.979996" gradientTransform="matrix(0.0478516,0,0,0.0486111,0,0)">
<stop offset="0" style="stop-color:rgb(0%,33.333333%,100%);stop-opacity:1;"/>
<stop offset="1" style="stop-color:rgb(66.666667%,0%,100%);stop-opacity:1;"/>
</linearGradient>
</defs>
<g id="surface1">
<path style=" stroke:none;fill-rule:nonzero;fill:url(#linear0);" d="M 48.414062 18.542969 L 42.582031 8.285156 C 41.863281 7.019531 40.539062 6.242188 39.101562 6.242188 L 33.09375 6.242188 C 32.578125 6.242188 32.253906 6.808594 32.511719 7.265625 L 33.816406 9.558594 C 34.054688 9.980469 34.5 10.238281 34.976562 10.238281 L 37.601562 10.238281 C 38.558594 10.238281 39.445312 10.757812 39.925781 11.601562 L 44.257812 19.226562 C 44.734375 20.066406 44.734375 21.105469 44.257812 21.949219 L 39.925781 29.570312 C 39.445312 30.414062 38.558594 30.933594 37.601562 30.933594 L 28.9375 30.933594 C 27.980469 30.933594 27.09375 30.414062 26.617188 29.570312 L 17.242188 13.082031 C 16.984375 12.628906 17.308594 12.058594 17.824219 12.058594 L 20.449219 12.058594 C 20.964844 12.058594 21.289062 11.492188 21.03125 11.039062 L 19.726562 8.746094 C 19.484375 8.324219 19.042969 8.0625 18.566406 8.0625 L 12.894531 8.0625 C 12.414062 8.0625 11.972656 8.324219 11.734375 8.746094 L 8.898438 13.734375 C 8.660156 14.15625 8.660156 14.671875 8.898438 15.09375 L 10.203125 17.390625 C 10.460938 17.84375 11.105469 17.84375 11.363281 17.390625 L 12.675781 15.082031 C 12.933594 14.628906 13.578125 14.628906 13.835938 15.082031 L 23.957031 32.890625 C 24.675781 34.152344 26.003906 34.929688 27.4375 34.929688 L 39.101562 34.929688 C 40.535156 34.929688 41.863281 34.152344 42.582031 32.890625 L 48.414062 22.628906 C 49.132812 21.367188 49.132812 19.808594 48.414062 18.546875 Z M 48.414062 18.542969 "/>
<path style=" stroke:none;fill-rule:nonzero;fill:url(#linear1);" d="M 15.183594 25.441406 C 14.945312 25.019531 14.5 24.761719 14.023438 24.761719 L 11.398438 24.761719 C 10.4375 24.761719 9.554688 24.242188 9.074219 23.398438 L 4.742188 15.773438 C 4.261719 14.933594 4.261719 13.894531 4.742188 13.050781 L 9.074219 5.429688 C 9.554688 4.585938 10.4375 4.066406 11.398438 4.066406 L 20.0625 4.066406 C 21.019531 4.066406 21.90625 4.585938 22.382812 5.429688 L 31.757812 21.917969 C 32.015625 22.375 31.691406 22.941406 31.175781 22.941406 L 28.550781 22.941406 C 28.035156 22.941406 27.710938 23.507812 27.96875 23.960938 L 29.273438 26.253906 C 29.515625 26.675781 29.957031 26.9375 30.433594 26.9375 L 36.105469 26.9375 C 36.585938 26.9375 37.027344 26.675781 37.265625 26.253906 L 40.101562 21.265625 C 40.339844 20.847656 40.339844 20.328125 40.101562 19.90625 L 38.796875 17.609375 C 38.539062 17.15625 37.894531 17.15625 37.636719 17.609375 L 36.324219 19.921875 C 36.066406 20.375 35.421875 20.375 35.164062 19.921875 L 25.042969 2.113281 C 24.324219 0.847656 22.996094 0.0703125 21.558594 0.0703125 L 9.898438 0.0703125 C 8.460938 0.0703125 7.136719 0.847656 6.417969 2.113281 L 0.585938 12.371094 C -0.132812 13.636719 -0.132812 15.191406 0.585938 16.457031 L 6.417969 26.714844 C 7.136719 27.980469 8.464844 28.757812 9.898438 28.757812 L 15.90625 28.757812 C 16.421875 28.757812 16.746094 28.191406 16.488281 27.738281 Z M 15.183594 25.441406 "/>
</g>
</svg>
