<?xml version="1.0" encoding="UTF-8"?>
<svg xmlns="http://www.w3.org/2000/svg" xmlns:xlink="http://www.w3.org/1999/xlink" width="50px" height="50px" viewBox="0 0 50 50" version="1.1">
<g id="surface1">
<path style=" stroke:none;fill-rule:nonzero;fill:rgb(16.078432%,71.372551%,96.470588%);fill-opacity:1;" d="M 25 4.167969 C 13.492188 4.167969 4.167969 13.492188 4.167969 25 C 4.167969 36.507812 13.492188 45.832031 25 45.832031 C 36.507812 45.832031 45.832031 36.507812 45.832031 25 C 45.832031 13.492188 36.507812 4.167969 25 4.167969 Z M 25 4.167969 "/>
<path style=" stroke:none;fill-rule:nonzero;fill:rgb(100%,100%,100%);fill-opacity:1;" d="M 35.363281 15.625 L 31.460938 35.546875 C 31.460938 35.546875 31.292969 36.457031 30.164062 36.457031 C 29.566406 36.457031 29.257812 36.171875 29.257812 36.171875 L 20.804688 29.160156 L 16.667969 27.074219 L 11.363281 25.664062 C 11.363281 25.664062 10.417969 25.390625 10.417969 24.609375 C 10.417969 23.957031 11.386719 23.648438 11.386719 23.648438 L 33.59375 14.828125 C 33.589844 14.824219 34.269531 14.582031 34.765625 14.582031 C 35.070312 14.582031 35.417969 14.714844 35.417969 15.105469 C 35.417969 15.363281 35.363281 15.625 35.363281 15.625 Z M 35.363281 15.625 "/>
<path style=" stroke:none;fill-rule:nonzero;fill:rgb(69.01961%,74.509805%,77.254903%);fill-opacity:1;" d="M 23.957031 31.777344 L 20.390625 35.289062 C 20.390625 35.289062 20.234375 35.410156 20.027344 35.414062 C 19.957031 35.417969 19.878906 35.40625 19.800781 35.371094 L 20.804688 29.15625 Z M 23.957031 31.777344 "/>
<path style=" stroke:none;fill-rule:nonzero;fill:rgb(81.176472%,84.705883%,86.274511%);fill-opacity:1;" d="M 31.144531 18.953125 C 30.964844 18.726562 30.640625 18.683594 30.414062 18.855469 L 16.667969 27.082031 C 16.667969 27.082031 18.859375 33.222656 19.195312 34.285156 C 19.53125 35.347656 19.800781 35.371094 19.800781 35.371094 L 20.804688 29.160156 L 31.042969 19.683594 C 31.273438 19.507812 31.316406 19.183594 31.144531 18.953125 Z M 31.144531 18.953125 "/>
</g>
</svg>
