<?xml version="1.0" encoding="UTF-8"?>
<svg xmlns="http://www.w3.org/2000/svg" xmlns:xlink="http://www.w3.org/1999/xlink" width="50px" height="50px" viewBox="0 0 50 50" version="1.1">
<g id="surface1">
<path style=" stroke:none;fill-rule:evenodd;fill:rgb(12.941177%,12.941177%,12.941177%);fill-opacity:1;" d="M 11.359375 6.25 L 38.640625 6.25 C 41.460938 6.25 43.75 8.539062 43.75 11.359375 L 43.75 38.640625 C 43.75 41.460938 41.460938 43.75 38.640625 43.75 L 11.359375 43.75 C 8.539062 43.75 6.25 41.460938 6.25 38.640625 L 6.25 11.359375 C 6.25 8.539062 8.539062 6.25 11.359375 6.25 Z M 11.359375 6.25 "/>
<path style=" stroke:none;fill-rule:evenodd;fill:rgb(92.54902%,25.098041%,47.843137%);fill-opacity:1;" d="M 30.425781 21.464844 C 32.066406 22.636719 34.078125 23.328125 36.25 23.328125 L 36.25 19.148438 C 35.839844 19.148438 35.429688 19.105469 35.027344 19.023438 L 35.027344 22.308594 C 32.855469 22.308594 30.84375 21.621094 29.203125 20.449219 L 29.203125 28.972656 C 29.203125 33.238281 25.742188 36.695312 21.476562 36.695312 C 19.882812 36.695312 18.402344 36.214844 17.175781 35.386719 C 18.578125 36.820312 20.535156 37.710938 22.699219 37.710938 C 26.964844 37.710938 30.425781 34.253906 30.425781 29.988281 Z M 31.933594 17.25 C 31.097656 16.335938 30.542969 15.152344 30.425781 13.839844 L 30.425781 13.304688 L 29.265625 13.304688 C 29.558594 14.96875 30.554688 16.390625 31.933594 17.25 Z M 19.875 32.117188 C 19.40625 31.503906 19.152344 30.75 19.152344 29.976562 C 19.152344 28.027344 20.734375 26.445312 22.6875 26.445312 C 23.050781 26.445312 23.414062 26.5 23.757812 26.613281 L 23.757812 22.339844 C 23.355469 22.285156 22.945312 22.261719 22.535156 22.269531 L 22.535156 25.59375 C 22.191406 25.484375 21.828125 25.429688 21.464844 25.429688 C 19.511719 25.429688 17.929688 27.007812 17.929688 28.960938 C 17.929688 30.339844 18.722656 31.535156 19.875 32.117188 Z M 19.875 32.117188 "/>
<path style=" stroke:none;fill-rule:evenodd;fill:rgb(100%,100%,100%);fill-opacity:1;" d="M 29.203125 20.449219 C 30.84375 21.621094 32.855469 22.308594 35.027344 22.308594 L 35.027344 19.023438 C 33.816406 18.761719 32.742188 18.128906 31.933594 17.25 C 30.554688 16.386719 29.558594 14.96875 29.265625 13.304688 L 26.222656 13.304688 L 26.222656 29.988281 C 26.214844 31.933594 24.636719 33.507812 22.6875 33.507812 C 21.539062 33.507812 20.519531 32.960938 19.875 32.117188 C 18.722656 31.535156 17.929688 30.339844 17.929688 28.960938 C 17.929688 27.007812 19.511719 25.429688 21.464844 25.429688 C 21.839844 25.429688 22.199219 25.488281 22.539062 25.59375 L 22.539062 22.269531 C 18.347656 22.355469 14.976562 25.78125 14.976562 29.992188 C 14.976562 32.09375 15.816406 33.996094 17.175781 35.390625 C 18.40625 36.214844 19.886719 36.695312 21.476562 36.695312 C 25.746094 36.695312 29.203125 33.238281 29.203125 28.972656 Z M 29.203125 20.449219 "/>
<path style=" stroke:none;fill-rule:evenodd;fill:rgb(50.588238%,83.137256%,98.039216%);fill-opacity:1;" d="M 35.027344 19.023438 L 35.027344 18.132812 C 33.933594 18.136719 32.863281 17.828125 31.933594 17.25 C 32.753906 18.148438 33.835938 18.769531 35.027344 19.023438 Z M 29.265625 13.304688 C 29.238281 13.144531 29.214844 12.984375 29.203125 12.824219 L 29.203125 12.285156 L 24.996094 12.285156 L 24.996094 28.972656 C 24.992188 30.917969 23.410156 32.492188 21.464844 32.492188 C 20.890625 32.492188 20.351562 32.355469 19.875 32.117188 C 20.519531 32.960938 21.539062 33.507812 22.6875 33.507812 C 24.636719 33.507812 26.214844 31.933594 26.222656 29.988281 L 26.222656 13.304688 Z M 22.535156 22.269531 L 22.535156 21.324219 C 22.183594 21.277344 21.832031 21.253906 21.476562 21.253906 C 17.207031 21.253906 13.75 24.710938 13.75 28.972656 C 13.75 31.648438 15.109375 34.003906 17.175781 35.390625 C 15.8125 33.996094 14.972656 32.09375 14.972656 29.992188 C 14.972656 25.78125 18.34375 22.355469 22.535156 22.269531 Z M 22.535156 22.269531 "/>
</g>
</svg>
