<?xml version="1.0" encoding="UTF-8"?>
<svg xmlns="http://www.w3.org/2000/svg" xmlns:xlink="http://www.w3.org/1999/xlink" width="50px" height="50px" viewBox="0 0 50 50" version="1.1">
<g id="surface1">
<path style=" stroke:none;fill-rule:nonzero;fill:rgb(85.09804%,85.09804%,85.09804%);fill-opacity:1;" d="M 11 11 L 40 11 L 40 39 L 11 39 Z M 11 11 "/>
<path style=" stroke:none;fill-rule:nonzero;fill:rgb(0%,0%,0%);fill-opacity:1;" d="M 10 6.667969 C 8.160156 6.667969 6.667969 8.160156 6.667969 10 L 6.667969 40 C 6.667969 41.839844 8.160156 43.332031 10 43.332031 L 40 43.332031 C 41.839844 43.332031 43.332031 41.839844 43.332031 40 L 43.332031 10 C 43.332031 8.160156 41.839844 6.667969 40 6.667969 Z M 14.414062 15 L 22.097656 15 L 26.585938 21.414062 L 32.136719 15 L 34.554688 15 L 27.671875 22.96875 L 36.089844 35 L 28.40625 35 L 23.429688 27.882812 L 17.28125 35 L 14.824219 35 L 22.335938 26.324219 Z M 18.132812 16.972656 L 29.386719 33.019531 L 32.371094 33.019531 L 21.109375 16.972656 Z M 18.132812 16.972656 "/>
</g>
</svg>
